<?xml version="1.0" standalone="no"?>
<!DOCTYPE svg PUBLIC "-//W3C//DTD SVG 20010904//EN"
 "http://www.w3.org/TR/2001/REC-SVG-20010904/DTD/svg10.dtd">
<svg version="1.0" xmlns="http://www.w3.org/2000/svg"
 width="1000.000000pt" height="1000.000000pt" viewBox="0 0 1000.000000 1000.000000"
 preserveAspectRatio="xMidYMid meet">

<g transform="translate(0.000000,1000.000000) scale(0.100000,-0.100000)"
fill="#000000" stroke="none">
<path d="M5285 8313 c-133 -29 -243 -142 -281 -288 l-13 -50 5 45 c4 25 6 63
6 85 -1 22 4 45 10 52 8 10 6 13 -6 13 -9 0 -16 -8 -16 -19 0 -11 -5 -23 -11
-27 -7 -4 -9 2 -7 17 2 19 -2 25 -20 27 -13 2 -26 10 -29 18 -3 8 -14 14 -25
14 -10 0 -16 5 -13 10 6 10 -20 15 -60 12 -26 -3 -68 -23 -78 -39 -4 -7 -16
-13 -25 -13 -62 0 -342 -245 -414 -362 -16 -26 -33 -48 -37 -48 -5 0 -16 -18
-26 -40 -10 -22 -22 -40 -27 -40 -4 0 -8 -5 -8 -11 0 -6 -11 -25 -25 -43 -14
-18 -25 -41 -25 -50 0 -9 -4 -14 -10 -11 -19 12 -54 14 -65 5 -6 -5 -20 -8
-31 -8 -16 2 -19 8 -16 30 4 26 2 28 -22 24 -14 -2 -25 -2 -24 2 0 4 -3 22 -7
41 -7 31 -10 33 -42 28 -24 -4 -40 -1 -53 11 -43 39 -52 44 -74 38 -17 -4 -31
2 -50 19 -15 14 -31 25 -37 25 -5 0 -9 9 -9 20 0 11 4 20 9 20 6 0 9 9 8 20
-1 11 -4 20 -8 20 -4 0 -15 3 -25 7 -14 5 -16 3 -10 -13 6 -15 5 -17 -5 -6 -7
6 -21 12 -31 12 -21 0 -37 27 -32 57 3 20 2 21 -26 11 -27 -9 -29 -12 -18 -27
12 -14 11 -14 -4 -3 -10 8 -23 10 -30 6 -7 -5 -20 -9 -28 -11 -8 -1 -24 -13
-35 -27 -12 -15 -29 -26 -38 -26 -17 0 -29 -7 -68 -42 -10 -10 -23 -18 -28
-18 -5 0 -11 -3 -13 -7 -1 -5 -21 -17 -43 -28 -49 -23 -76 -45 -70 -55 3 -4
-6 -11 -19 -14 -39 -10 -171 -118 -335 -273 -156 -150 -211 -217 -211 -261 0
-24 1 -24 63 -15 34 4 118 8 187 8 105 0 131 -3 154 -18 59 -39 49 -97 -26
-134 -24 -12 -94 -47 -157 -78 -344 -169 -613 -448 -801 -830 -91 -185 -150
-345 -184 -500 -61 -271 -73 -497 -42 -770 81 -720 255 -1160 680 -1728 240
-319 414 -433 722 -468 122 -15 258 -3 380 33 93 27 93 26 129 -100 71 -254
238 -484 428 -590 121 -68 223 -86 472 -86 174 0 210 3 280 22 103 28 229 90
287 142 25 22 52 40 60 40 7 0 37 -18 66 -39 136 -103 308 -145 493 -123 452
56 982 328 1408 722 509 470 823 988 960 1580 34 146 45 242 69 568 11 153
-26 479 -60 517 -4 5 -8 18 -8 29 0 20 0 20 -16 0 -12 -15 -15 -16 -10 -2 3 9
0 19 -7 22 -8 3 -6 9 6 19 12 10 15 17 7 22 -6 4 -9 13 -6 21 3 7 1 16 -5 20
-6 3 -8 12 -5 19 3 8 -2 19 -10 25 -8 7 -14 21 -14 31 0 10 -5 21 -10 24 -6 4
-18 24 -26 45 -8 20 -26 47 -40 59 -13 11 -24 28 -24 36 0 8 -4 15 -9 15 -20
0 -19 -17 1 -51 12 -19 25 -47 29 -64 20 -76 42 -123 54 -119 7 3 15 -4 18
-16 3 -13 0 -23 -9 -27 -12 -4 -14 -19 -9 -72 14 -151 14 -192 -1 -315 -8 -72
-26 -173 -40 -227 -13 -53 -26 -106 -29 -117 -5 -28 -23 -60 -45 -82 -17 -17
-19 -17 -49 14 -17 18 -31 40 -31 49 0 11 -8 17 -24 17 -38 0 -57 11 -67 37
-6 15 -14 22 -21 17 -10 -5 -10 -4 -1 6 6 7 9 18 7 25 -3 7 -1 16 5 20 6 3 11
12 11 18 0 7 -7 4 -14 -6 -8 -10 -25 -19 -38 -19 -12 -1 -29 -6 -35 -11 -20
-15 -15 7 6 30 10 11 27 35 36 54 10 19 24 41 32 50 17 21 95 196 123 280 70
206 65 410 -15 577 -32 67 -38 74 -87 97 -62 29 -121 32 -199 9 -42 -12 -66
-28 -111 -74 -74 -75 -123 -178 -188 -395 -115 -378 -130 -427 -160 -499 -42
-99 -124 -229 -231 -363 -338 -421 -721 -697 -1149 -827 -283 -85 -611 -99
-916 -37 -64 13 -90 23 -92 34 -3 16 70 91 163 165 28 22 109 88 180 146 204
167 452 351 685 509 30 21 93 65 140 98 47 33 114 80 150 105 514 356 875 679
1130 1010 103 134 209 318 240 419 7 22 19 54 26 70 8 17 25 73 38 125 18 72
21 99 12 109 -8 11 -8 13 2 7 6 -4 12 -4 13 1 0 4 2 17 4 28 9 45 13 125 7
125 -4 0 -8 46 -9 103 -2 72 1 98 8 87 7 -11 8 -5 3 20 -12 63 -25 55 -26 -18
-1 -29 -6 -53 -13 -56 -7 -2 -11 4 -10 17 2 13 -12 40 -36 67 -31 36 -39 41
-45 27 -8 -23 -94 -25 -94 -2 0 8 9 15 20 15 22 0 26 20 8 38 -17 17 -26 15
-30 -5 -2 -13 -9 -7 -21 20 -16 34 -46 55 -34 24 3 -8 -1 -14 -9 -14 -9 0 -14
11 -14 29 0 25 -3 28 -34 28 -50 0 -66 9 -66 36 0 25 16 29 78 24 12 -1 22 3
22 9 0 6 -18 11 -40 11 -38 0 -40 2 -40 30 0 27 3 30 33 31 l32 1 -30 7 c-39
9 -70 2 -56 -12 6 -6 11 -16 11 -22 0 -5 -4 -4 -9 4 -7 10 -11 0 -16 -35 -3
-27 -10 -57 -16 -67 -5 -10 -14 -37 -18 -60 -5 -23 -21 -73 -36 -112 -15 -38
-33 -84 -39 -100 -6 -17 -21 -47 -33 -68 -13 -21 -23 -44 -23 -50 0 -7 -14
-32 -30 -56 -17 -24 -30 -50 -30 -57 0 -7 -4 -14 -8 -16 -7 -3 -112 -155 -139
-202 -6 -12 -32 -41 -56 -65 -42 -42 -47 -44 -108 -47 -35 -1 -53 1 -40 5 l23
6 -30 30 c-60 59 -95 87 -128 103 -22 10 -33 21 -29 30 3 10 0 12 -10 8 -17
-6 -85 57 -85 79 0 8 -5 15 -11 15 -5 0 -7 -6 -3 -12 6 -10 4 -10 -7 0 -7 6
-23 12 -36 12 -13 0 -23 5 -23 11 0 6 -6 9 -14 6 -17 -7 -80 59 -71 73 3 6 -5
14 -18 19 -14 6 -32 19 -40 31 -9 13 -23 20 -34 18 -11 -2 -27 3 -36 10 -12
11 -20 10 -46 -6 -17 -10 -28 -22 -24 -25 3 -4 -3 -7 -15 -7 -12 0 -22 -4 -22
-8 0 -4 -26 -20 -57 -36 -84 -40 -134 -68 -170 -93 -17 -13 -33 -23 -36 -23
-3 0 -45 -23 -94 -51 -78 -46 -143 -84 -255 -148 -126 -72 -167 -97 -283 -174
-197 -131 -305 -218 -449 -361 -319 -317 -531 -668 -691 -1141 -26 -77 -51
-148 -57 -158 -11 -21 -131 -79 -209 -101 -219 -60 -371 -2 -459 177 -55 110
-79 231 -86 432 l-7 160 35 50 c68 99 84 122 163 225 455 601 932 1074 1189
1178 80 32 130 27 233 -26 98 -50 191 -82 236 -82 48 0 82 31 109 98 20 52 22
73 22 232 0 122 -6 200 -17 259 -23 114 -22 139 6 151 344 139 535 291 629
499 145 319 -39 686 -341 680 -31 -1 -65 -3 -76 -6z m-445 -132 c0 -5 -9 -7
-21 -4 -12 4 -25 0 -30 -8 -7 -11 -9 -10 -9 4 0 12 8 17 30 17 17 0 30 -4 30
-9z m40 -1 c0 -5 -4 -10 -10 -10 -5 0 -10 5 -10 10 0 6 5 10 10 10 6 0 10 -4
10 -10z m-1340 -344 c0 -2 -7 -6 -15 -10 -8 -3 -15 -1 -15 4 0 6 7 10 15 10 8
0 15 -2 15 -4z m160 -117 c0 -14 -27 -10 -33 5 -4 10 0 12 14 9 10 -3 19 -9
19 -14z m440 -168 c0 -6 -4 -13 -10 -16 -5 -3 -10 1 -10 9 0 9 5 16 10 16 6 0
10 -4 10 -9z m3060 -600 c0 -6 -4 -13 -10 -16 -5 -3 -10 1 -10 9 0 9 5 16 10
16 6 0 10 -4 10 -9z m130 -65 c0 -2 -8 -10 -17 -17 -16 -13 -17 -12 -4 4 13
16 21 21 21 13z m-70 -116 c0 -5 -7 -7 -15 -4 -8 4 -15 8 -15 10 0 2 7 4 15 4
8 0 15 -4 15 -10z m120 -6 c0 -17 -22 -14 -28 4 -2 7 3 12 12 12 9 0 16 -7 16
-16z m187 -216 c-2 -13 -4 -3 -4 22 0 25 2 35 4 23 2 -13 2 -33 0 -45z m-1554
20 c-4 -7 -7 -22 -5 -33 l2 -20 -9 20 c-7 18 2 45 16 45 2 0 1 -6 -4 -12z
m214 -134 c-3 -3 -12 -4 -19 -1 -8 3 -5 6 6 6 11 1 17 -2 13 -5z m1949 -1061
c-10 -10 -19 5 -10 18 6 11 8 11 12 0 2 -7 1 -15 -2 -18z m54 -153 c0 -5 -4
-10 -10 -10 -5 0 -10 5 -10 10 0 6 5 10 10 10 6 0 10 -4 10 -10z m-440 -474
c0 -2 -7 -9 -15 -16 -13 -11 -14 -10 -9 4 5 14 24 23 24 12z m210 -222 c0 -10
-7 -14 -22 -12 -32 5 -35 28 -4 28 17 0 26 -5 26 -16z"/>
<path d="M5007 8233 c-3 -5 -1 -17 4 -28 7 -17 8 -17 8 8 1 27 -4 34 -12 20z"/>
<path d="M4920 8223 c0 -5 11 -8 25 -8 14 0 25 3 25 8 0 4 -11 7 -25 7 -14 0
-25 -3 -25 -7z"/>
<path d="M6425 7907 c-214 -80 -337 -282 -364 -597 -12 -138 1 -414 25 -547
16 -86 18 -90 33 -73 9 10 57 51 106 91 274 221 419 392 507 599 110 257 80
470 -74 535 -55 22 -160 19 -233 -8z"/>
<path d="M3770 7800 c0 -5 18 -10 40 -10 22 0 40 5 40 10 0 6 -18 10 -40 10
-22 0 -40 -4 -40 -10z"/>
<path d="M7490 7169 c0 -5 -4 -7 -10 -4 -5 3 -10 1 -10 -4 0 -6 7 -11 15 -11
8 0 15 7 15 15 0 8 -2 15 -5 15 -3 0 -5 -5 -5 -11z"/>
<path d="M7385 6970 c-3 -5 -2 -10 4 -10 5 0 13 5 16 10 3 6 2 10 -4 10 -5 0
-13 -4 -16 -10z"/>
<path d="M7562 6958 c-14 -14 -16 -48 -3 -48 9 0 25 49 18 56 -2 2 -9 -2 -15
-8z"/>
<path d="M6105 6639 c-10 -14 -1 -21 19 -13 9 3 13 10 10 15 -7 12 -21 11 -29
-2z"/>
<path d="M6696 6221 c-4 -7 -5 -15 -2 -18 9 -9 19 4 14 18 -4 11 -6 11 -12 0z"/>
<path d="M8000 5723 c0 -6 8 -17 18 -24 16 -13 16 -13 2 6 -8 11 -16 22 -17
24 -2 2 -3 0 -3 -6z"/>
<path d="M7885 4730 c-19 -8 -19 -9 3 -9 12 -1 22 4 22 9 0 6 -1 10 -2 9 -2 0
-12 -4 -23 -9z"/>
</g>
</svg>
